<?xml version="1.0" encoding="UTF-8" standalone="no"?>
<!-- Created with Inkscape (http://www.inkscape.org/) -->

<svg
   xmlns:dc="http://purl.org/dc/elements/1.1/"
   xmlns:cc="http://creativecommons.org/ns#"
   xmlns:rdf="http://www.w3.org/1999/02/22-rdf-syntax-ns#"
   xmlns:svg="http://www.w3.org/2000/svg"
   xmlns="http://www.w3.org/2000/svg"
   xmlns:sodipodi="http://sodipodi.sourceforge.net/DTD/sodipodi-0.dtd"
   xmlns:inkscape="http://www.inkscape.org/namespaces/inkscape"
   width="512"
   height="512"
   viewBox="0 0 135.46666 135.46667"
   version="1.1"
   id="svg8"
   inkscape:version="0.92.2 (5c3e80d, 2017-08-06)"
   sodipodi:docname="icon.svg">
  <defs
     id="defs2" />
  <sodipodi:namedview
     id="base"
     pagecolor="#ffffff"
     bordercolor="#666666"
     borderopacity="1.0"
     inkscape:pageopacity="0.0"
     inkscape:pageshadow="2"
     inkscape:zoom="0.35"
     inkscape:cx="-111.65464"
     inkscape:cy="251.63143"
     inkscape:document-units="px"
     inkscape:current-layer="layer1"
     showgrid="false"
     units="px"
     inkscape:window-width="1176"
     inkscape:window-height="1025"
     inkscape:window-x="75"
     inkscape:window-y="63"
     inkscape:window-maximized="0" />
  <metadata
     id="metadata5">
    <rdf:RDF>
      <cc:Work
         rdf:about="">
        <dc:format>image/svg+xml</dc:format>
        <dc:type
           rdf:resource="http://purl.org/dc/dcmitype/StillImage" />
        <dc:title></dc:title>
      </cc:Work>
    </rdf:RDF>
  </metadata>
  <g
     inkscape:label="Layer 1"
     inkscape:groupmode="layer"
     id="layer1"
     transform="translate(0,-161.53332)">
    <path
       style="color:#000000;font-style:normal;font-variant:normal;font-weight:normal;font-stretch:normal;font-size:medium;line-height:normal;font-family:sans-serif;font-variant-ligatures:normal;font-variant-position:normal;font-variant-caps:normal;font-variant-numeric:normal;font-variant-alternates:normal;font-feature-settings:normal;text-indent:0;text-align:start;text-decoration:none;text-decoration-line:none;text-decoration-style:solid;text-decoration-color:#000000;letter-spacing:normal;word-spacing:normal;text-transform:none;writing-mode:lr-tb;direction:ltr;text-orientation:mixed;dominant-baseline:auto;baseline-shift:baseline;text-anchor:start;white-space:normal;shape-padding:0;clip-rule:nonzero;display:inline;overflow:visible;visibility:visible;opacity:1;isolation:auto;mix-blend-mode:normal;color-interpolation:sRGB;color-interpolation-filters:linearRGB;solid-color:#000000;solid-opacity:1;vector-effect:none;fill:#000000;fill-opacity:1;fill-rule:nonzero;stroke:none;stroke-width:38.11909103;stroke-linecap:butt;stroke-linejoin:round;stroke-miterlimit:4;stroke-dasharray:none;stroke-dashoffset:0;stroke-opacity:1;color-rendering:auto;image-rendering:auto;shape-rendering:auto;text-rendering:auto;enable-background:accumulate"
       d="M 154.17383 136.91602 C 139.23076 137.06617 124.19133 140.02883 109.86523 145.96289 C 93.194884 152.86797 78.686002 163.30363 67.064453 176.18555 C 47.695187 197.65542 36.345703 225.92882 36.345703 256.00195 C 36.345703 304.11885 65.407059 347.61965 109.86133 366.0332 C 152.03677 383.50284 200.37777 375.19514 234.2793 345.24414 C 225.3378 336.07424 217.74474 325.58606 211.84375 314.09961 C 188.65158 336.62164 154.39018 343.21836 124.44922 330.81641 C 120.29373 329.09514 116.34774 327.04414 112.61523 324.72266 L 205.58008 212.17578 C 211.87913 195.03971 221.76076 179.59351 234.29297 166.74414 C 212.67429 147.64432 185.18257 137.34451 157.16016 136.92383 C 156.16504 136.90889 155.17003 136.90601 154.17383 136.91602 z M 154.60547 175 C 155.28238 174.99271 155.95867 174.9942 156.63477 175.00391 C 165.59677 175.1326 174.47149 176.75731 182.89258 179.79297 L 85.792969 297.33789 C 78.52692 285.09347 74.460937 270.89752 74.460938 256.00195 C 74.460938 223.19323 94.143779 193.73704 124.45508 181.18164 C 134.22337 177.13549 144.45175 175.10942 154.60547 175 z "
       transform="matrix(0.26458333,0,0,0.26458333,0,161.53332)"
       id="path815" />
    <g
       id="g4625"
       transform="translate(-60.325004,0.75595113)">
      <circle
         r="26.469194"
         cy="228.43628"
         cx="147.06488"
         id="path815-4"
         style="fill:none;stroke:#000000;stroke-width:10.08567619;stroke-linecap:round;stroke-linejoin:round;stroke-miterlimit:4;stroke-dasharray:none;stroke-opacity:1" />
      <path
         sodipodi:nodetypes="cc"
         inkscape:connector-curvature="0"
         id="path834-6"
         d="M 169.95933,256.53133 151.02649,237.5985"
         style="fill:none;stroke:#000000;stroke-width:10.08567619;stroke-linecap:butt;stroke-linejoin:miter;stroke-miterlimit:4;stroke-dasharray:none;stroke-opacity:1" />
    </g>
  </g>
</svg>
