<?xml version="1.0" encoding="UTF-8" standalone="no"?>
<svg
   xmlns:dc="http://purl.org/dc/elements/1.1/"
   xmlns:cc="http://creativecommons.org/ns#"
   xmlns:rdf="http://www.w3.org/1999/02/22-rdf-syntax-ns#"
   xmlns:svg="http://www.w3.org/2000/svg"
   xmlns="http://www.w3.org/2000/svg"
   width="64"
   height="32"
   viewBox="0 0 16.933333 8.466667"
   version="1.1"
   id="svg8">
  <defs
     id="defs2">
    <clipPath
       clipPathUnits="userSpaceOnUse"
       id="clipPath4601">
      <path
         style="stroke-width:1.05833328;stroke-linecap:round;stroke-linejoin:miter;stroke-miterlimit:4;stroke-dasharray:none"
         d="m -11.893495,277.22205 h 10.4235129 v 4.54358 H -11.893495 Z"
         id="path4603" />
    </clipPath>
  </defs>
  <metadata
     id="metadata5">
    <rdf:RDF>
      <cc:Work
         rdf:about="">
        <dc:format>image/svg+xml</dc:format>
        <dc:type
           rdf:resource="http://purl.org/dc/dcmitype/StillImage" />
        <dc:title></dc:title>
      </cc:Work>
    </rdf:RDF>
  </metadata>
  <g
     id="layer2"
     transform="translate(0,-8.4666667)"
     style="display:none">
    <path
       style="fill:none;stroke:#000000;stroke-width:1.05833328;stroke-linecap:round;stroke-linejoin:miter;stroke-miterlimit:4;stroke-dasharray:none;stroke-opacity:1"
       d="m 14.777943,15.450703 v -3.19512 c 0,-2.2690185 -2.471919,-2.3137699 -3.650279,-2.3137699 H 2.1628742"
       id="path4506" />
  </g>
  <g
     id="layer3">
    <path
       id="path4853"
       d="m 2.1621094,0.9453125 a 0.52929685,0.52929685 0 1 0 0,1.0585937 h 0.9023437 c 0.049448,0 0.1183949,0.017623 0.2421875,0.125 0.1237927,0.1073772 0.2780259,0.2996176 0.4355469,0.5507813 0.3150419,0.5023274 0.6440211,1.2288625 0.9921875,1.9726563 0.3481664,0.7437937 0.7142696,1.5062963 1.1679688,2.1210937 0.4536991,0.6147974 1.048918,1.1367187 1.828125,1.1367187 H 9 a 0.52921962,0.52921962 0 0 0 0.00195,0 C 9.7583542,7.9069311 10.308559,7.3695571 10.736328,6.7578125 11.164097,6.1460679 11.519251,5.3909052 11.869141,4.6523438 12.21903,3.9137823 12.564315,3.1919439 12.904297,2.6953125 13.244279,2.1986811 13.529566,2.0039062 13.730469,2.0039062 h 1.015625 a 0.52929685,0.52929685 0 1 0 0,-1.0585937 h -1.015625 c -0.748711,0 -1.281916,0.5427641 -1.699219,1.1523437 -0.417303,0.6095797 -0.767997,1.364476 -1.117188,2.1015626 C 10.564872,4.9363053 10.21637,5.6557774 9.8691406,6.1523438 9.5219115,6.6489101 9.226685,6.8525408 8.9980469,6.8535156 H 7.7304688 C 7.436841,6.8535156 7.117521,6.6372573 6.7539062,6.1445312 6.3902915,5.6518052 6.0364284,4.9379824 5.6933594,4.2050781 5.3502903,3.4721739 5.0182294,2.7223836 4.6386719,2.1171875 4.4488931,1.8145894 4.2486186,1.5457287 4,1.3300781 3.7513814,1.1144276 3.4287081,0.9453125 3.0644531,0.9453125 Z"
       style="color:#000000;font-style:normal;font-variant:normal;font-weight:normal;font-stretch:normal;font-size:medium;line-height:normal;font-family:sans-serif;font-variant-ligatures:normal;font-variant-position:normal;font-variant-caps:normal;font-variant-numeric:normal;font-variant-alternates:normal;font-feature-settings:normal;text-indent:0;text-align:start;text-decoration:none;text-decoration-line:none;text-decoration-style:solid;text-decoration-color:#000000;letter-spacing:normal;word-spacing:normal;text-transform:none;writing-mode:lr-tb;direction:ltr;text-orientation:mixed;dominant-baseline:auto;baseline-shift:baseline;text-anchor:start;white-space:normal;shape-padding:0;clip-rule:nonzero;display:inline;overflow:visible;visibility:visible;opacity:1;isolation:auto;mix-blend-mode:normal;color-interpolation:sRGB;color-interpolation-filters:linearRGB;solid-color:#000000;solid-opacity:1;vector-effect:none;fill:#000000;fill-opacity:1;fill-rule:nonzero;stroke:none;stroke-width:1.0583334;stroke-linecap:round;stroke-linejoin:round;stroke-miterlimit:4;stroke-dasharray:none;stroke-dashoffset:0;stroke-opacity:1;color-rendering:auto;image-rendering:auto;shape-rendering:auto;text-rendering:auto;enable-background:accumulate" />
  </g>
</svg>
