<?xml version="1.0" encoding="UTF-8" standalone="no"?>
<svg
   xmlns:dc="http://purl.org/dc/elements/1.1/"
   xmlns:cc="http://creativecommons.org/ns#"
   xmlns:rdf="http://www.w3.org/1999/02/22-rdf-syntax-ns#"
   xmlns:svg="http://www.w3.org/2000/svg"
   xmlns="http://www.w3.org/2000/svg"
   xmlns:sodipodi="http://sodipodi.sourceforge.net/DTD/sodipodi-0.dtd"
   xmlns:inkscape="http://www.inkscape.org/namespaces/inkscape"
   width="64"
   height="32"
   viewBox="0 0 16.933333 8.466667"
   version="1.1"
   id="svg8"
   sodipodi:docname="peaking-path.svg"
   inkscape:version="0.92.4 5da689c313, 2019-01-14">
  <sodipodi:namedview
     pagecolor="#ffffff"
     bordercolor="#666666"
     borderopacity="1"
     objecttolerance="10"
     gridtolerance="10"
     guidetolerance="10"
     inkscape:pageopacity="0"
     inkscape:pageshadow="2"
     inkscape:window-width="1872"
     inkscape:window-height="1024"
     id="namedview3806"
     showgrid="false"
     inkscape:zoom="18.760427"
     inkscape:cx="38.189559"
     inkscape:cy="10.539899"
     inkscape:window-x="48"
     inkscape:window-y="28"
     inkscape:window-maximized="1"
     inkscape:current-layer="svg8" />
  <defs
     id="defs2">
    <clipPath
       clipPathUnits="userSpaceOnUse"
       id="clipPath4601">
      <path
         style="stroke-width:1.05833328;stroke-linecap:round;stroke-linejoin:miter;stroke-miterlimit:4;stroke-dasharray:none"
         d="m -11.893495,277.22205 h 10.4235129 v 4.54358 H -11.893495 Z"
         id="path4603" />
    </clipPath>
  </defs>
  <metadata
     id="metadata5">
    <rdf:RDF>
      <cc:Work
         rdf:about="">
        <dc:format>image/svg+xml</dc:format>
        <dc:type
           rdf:resource="http://purl.org/dc/dcmitype/StillImage" />
        <dc:title></dc:title>
      </cc:Work>
    </rdf:RDF>
  </metadata>
  <g
     id="layer2"
     transform="translate(0,-8.4666667)"
     style="display:none">
    <path
       style="fill:none;stroke:#000000;stroke-width:1.05833328;stroke-linecap:round;stroke-linejoin:miter;stroke-miterlimit:4;stroke-dasharray:none;stroke-opacity:1"
       d="m 14.777943,15.450703 v -3.19512 c 0,-2.2690185 -2.471919,-2.3137699 -3.650279,-2.3137699 H 2.1628742"
       id="path4506" />
  </g>
  <g
     id="layer3">
    <path
       id="path4756-0"
       style="color:#000000;font-style:normal;font-variant:normal;font-weight:normal;font-stretch:normal;font-size:medium;line-height:normal;font-family:sans-serif;font-variant-ligatures:normal;font-variant-position:normal;font-variant-caps:normal;font-variant-numeric:normal;font-variant-alternates:normal;font-feature-settings:normal;text-indent:0;text-align:start;text-decoration:none;text-decoration-line:none;text-decoration-style:solid;text-decoration-color:#000000;letter-spacing:normal;word-spacing:normal;text-transform:none;writing-mode:lr-tb;direction:ltr;text-orientation:mixed;dominant-baseline:auto;baseline-shift:baseline;text-anchor:start;white-space:normal;shape-padding:0;clip-rule:nonzero;display:inline;overflow:visible;visibility:visible;opacity:1;isolation:auto;mix-blend-mode:normal;color-interpolation:sRGB;color-interpolation-filters:linearRGB;solid-color:#000000;solid-opacity:1;vector-effect:none;fill:#000000;fill-opacity:1;fill-rule:nonzero;stroke:none;stroke-width:1.0583334;stroke-linecap:round;stroke-linejoin:round;stroke-miterlimit:4;stroke-dasharray:none;stroke-dashoffset:0;stroke-opacity:1;color-rendering:auto;image-rendering:auto;shape-rendering:auto;text-rendering:auto;enable-background:accumulate"
       d="m 13.876953,3.6386719 a 0.52929685,0.52929685 0 1 0 0,1.0585937 h 0.902344 a 0.52929685,0.52929685 0 1 0 0,-1.0585937 z M 6.0761719,0.9453125 A 0.52921962,0.52921962 0 0 0 5.7246094,1.0800781 L 2.8632812,3.6386719 H 2.1621094 a 0.52929685,0.52929685 0 1 0 0,1.0585937 H 2.8632812 L 5.7246094,7.2558594 A 0.52921962,0.52921962 0 0 0 6.0761719,7.390625 c 1.5859976,-1.454e-4 3.1717545,-5.49e-5 4.7578121,0 a 0.52921962,0.52921962 0 0 0 0.351563,-0.1328125 l 3.042969,-2.6933594 a 0.52921962,0.52921962 0 0 0 0,-0.7929687 L 11.185547,1.078125 A 0.52921962,0.52921962 0 0 0 10.833984,0.9453125 c -1.5860576,5.52e-5 -3.1718147,1.459e-4 -4.7578121,0 z m 0.203125,1.0585937 c 1.4519718,1.156e-4 2.9035477,5.29e-5 4.3554691,0 l 2.445312,2.1640626 -2.445312,2.1640624 c -1.4519215,-5.25e-5 -2.9034975,-1.151e-4 -4.3554691,0 L 3.859375,4.1679688 Z" />
  </g>
</svg>
